<mxfile host="app.diagrams.net" agent="Mozilla/5.0 (X11; Ubuntu; Linux x86_64; rv:133.0) Gecko/20100101 Firefox/133.0" version="25.0.1">
  <diagram name="PÃ¡gina-1" id="S1LxqCSoiejlppb5GJc7">
    <mxGraphModel dx="880" dy="471" grid="1" gridSize="10" guides="1" tooltips="1" connect="1" arrows="1" fold="1" page="1" pageScale="1" pageWidth="827" pageHeight="1169" math="0" shadow="0">
      <root>
        <mxCell id="0" />
        <mxCell id="1" parent="0" />
        <mxCell id="ZJHZbfnKI5M3YyzbJauu-1" value="" style="rounded=0;whiteSpace=wrap;html=1;" parent="1" vertex="1">
          <mxGeometry x="80" y="160" width="640" height="40" as="geometry" />
        </mxCell>
        <mxCell id="ZJHZbfnKI5M3YyzbJauu-21" value="&lt;b&gt;NMS AlertFlow Version&lt;br&gt;(1 byte)&lt;/b&gt;" style="text;html=1;align=center;verticalAlign=middle;whiteSpace=wrap;rounded=0;strokeColor=default;" parent="1" vertex="1">
          <mxGeometry x="80" y="160" width="160" height="40" as="geometry" />
        </mxCell>
        <mxCell id="ZJHZbfnKI5M3YyzbJauu-22" value="&lt;b&gt;Data&lt;/b&gt;" style="text;html=1;align=center;verticalAlign=middle;whiteSpace=wrap;rounded=0;strokeColor=default;" parent="1" vertex="1">
          <mxGeometry x="240" y="160" width="480" height="40" as="geometry" />
        </mxCell>
      </root>
    </mxGraphModel>
  </diagram>
</mxfile>
